<svg version="1.1" id="Layer_1" xmlns="http://www.w3.org/2000/svg" xmlns:xlink="http://www.w3.org/1999/xlink" x="0px" y="0px"
	 width="100%" viewBox="0 0 2084 2084" enable-background="new 0 0 2084 2084" xml:space="preserve">
<path fill="#000000" opacity="1.000000" stroke="none" 
	d="
M1424.000000,2086.000000 
	C949.390015,2086.000000 475.779999,2086.000000 2.084995,2086.000000 
	C2.084995,1391.473145 2.084995,696.946228 2.084995,2.209646 
	C696.443726,2.209646 1390.887451,2.209646 2085.665527,2.209646 
	C2085.665527,696.666504 2085.665527,1391.333252 2085.665527,2086.000000 
	C1865.611938,2086.000000 1645.306030,2086.000000 1424.000000,2086.000000 
M1703.000977,1687.668213 
	C1719.270996,1687.228271 1735.599731,1687.512695 1751.799072,1686.200073 
	C1787.401367,1683.315552 1815.077148,1665.965210 1836.270508,1637.680420 
	C1852.613647,1615.868774 1868.368042,1593.589844 1885.351196,1572.289551 
	C1917.029907,1532.557861 1949.420288,1493.393677 1981.476440,1453.962280 
	C1983.181519,1451.864990 1984.535034,1449.481812 1986.664429,1446.323608 
	C1783.053101,1446.323608 1581.107788,1446.324219 1379.162476,1446.310425 
	C1378.173340,1446.310303 1377.180054,1446.134888 1376.197632,1445.984009 
	C1375.906006,1445.938965 1375.610718,1445.736206 1375.379150,1445.534546 
	C1375.132202,1445.319824 1374.958740,1445.020508 1374.099854,1443.924072 
	C1374.099854,1098.933105 1374.099854,753.107422 1374.099854,406.916992 
	C1288.011108,406.916992 1202.576538,406.916992 1116.915527,406.916992 
	C1116.915527,833.573425 1116.915527,1259.644653 1116.915527,1685.965698 
	C1119.447021,1686.108765 1121.411133,1686.320923 1123.374634,1686.316162 
	C1209.010132,1686.112549 1294.645630,1685.751709 1380.281128,1685.716187 
	C1439.920654,1685.691528 1499.561035,1686.006592 1559.199829,1686.363403 
	C1606.468018,1686.646118 1653.734619,1687.222290 1703.000977,1687.668213 
M402.999847,644.329224 
	C506.540833,644.329224 610.081787,644.329224 714.333740,644.329224 
	C714.333740,648.356201 714.329163,651.299561 714.334351,654.242859 
	C714.777039,903.817383 715.222839,1153.391846 715.659302,1402.966431 
	C715.693665,1422.630371 715.636658,1442.294556 715.688171,1461.958252 
	C715.697754,1465.612061 716.076172,1469.263306 716.194397,1472.918579 
	C716.608826,1485.739014 722.112061,1495.277100 732.589966,1503.117554 
	C810.838684,1561.670410 888.828674,1620.568848 966.917786,1679.335083 
	C968.894958,1680.822876 971.078125,1682.036865 973.483765,1683.583374 
	C975.584045,1665.563110 974.734192,411.611664 972.610229,404.333832 
	C970.420471,404.333832 968.117065,404.313507 965.813965,404.336823 
	C922.211792,404.778229 878.609558,405.212128 835.007568,405.673309 
	C773.091919,406.328156 711.177429,407.121429 649.260498,407.587067 
	C633.992004,407.701935 618.718018,406.665405 603.442505,406.357422 
	C566.858337,405.619812 530.269165,405.110199 493.687317,404.277008 
	C480.090393,403.967316 466.514496,402.675934 452.917938,402.419525 
	C423.006775,401.855469 393.028778,399.707977 363.223907,403.903381 
	C333.656250,408.065399 305.750244,417.067596 280.302765,433.199707 
	C249.518265,452.715179 226.802765,479.623627 208.019363,510.340057 
	C201.953156,520.260132 196.144287,530.473389 188.937653,539.534485 
	C168.270615,565.519714 146.954147,590.988525 125.879913,616.649658 
	C118.651634,625.451172 111.384689,634.220825 103.042603,644.329224 
	C203.784988,644.329224 302.392395,644.329224 402.999847,644.329224 
z"/>
<path fill="#FEFEFE" opacity="1.000000" stroke="none" 
	d="
M1702.001465,1687.668213 
	C1653.734619,1687.222290 1606.468018,1686.646118 1559.199829,1686.363403 
	C1499.561035,1686.006592 1439.920654,1685.691528 1380.281128,1685.716187 
	C1294.645630,1685.751709 1209.010132,1686.112549 1123.374634,1686.316162 
	C1121.411133,1686.320923 1119.447021,1686.108765 1116.915527,1685.965698 
	C1116.915527,1259.644653 1116.915527,833.573425 1116.915527,406.916992 
	C1202.576538,406.916992 1288.011108,406.916992 1374.099854,406.916992 
	C1374.099854,753.107422 1374.099854,1098.933105 1374.099854,1443.924072 
	C1374.958740,1445.020508 1375.132202,1445.319824 1375.379150,1445.534546 
	C1375.610718,1445.736206 1375.906006,1445.938965 1376.197632,1445.984009 
	C1377.180054,1446.134888 1378.173340,1446.310303 1379.162476,1446.310425 
	C1581.107788,1446.324219 1783.053101,1446.323608 1986.664429,1446.323608 
	C1984.535034,1449.481812 1983.181519,1451.864990 1981.476440,1453.962280 
	C1949.420288,1493.393677 1917.029907,1532.557861 1885.351196,1572.289551 
	C1868.368042,1593.589844 1852.613647,1615.868774 1836.270508,1637.680420 
	C1815.077148,1665.965210 1787.401367,1683.315552 1751.799072,1686.200073 
	C1735.599731,1687.512695 1719.270996,1687.228271 1702.001465,1687.668213 
z"/>
<path fill="#FFFFFF" opacity="1.000000" stroke="none" 
	d="
M401.999817,644.329224 
	C302.392395,644.329224 203.784988,644.329224 103.042603,644.329224 
	C111.384689,634.220825 118.651634,625.451172 125.879913,616.649658 
	C146.954147,590.988525 168.270615,565.519714 188.937653,539.534485 
	C196.144287,530.473389 201.953156,520.260132 208.019363,510.340057 
	C226.802765,479.623627 249.518265,452.715179 280.302765,433.199707 
	C305.750244,417.067596 333.656250,408.065399 363.223907,403.903381 
	C393.028778,399.707977 423.006775,401.855469 452.917938,402.419525 
	C466.514496,402.675934 480.090393,403.967316 493.687317,404.277008 
	C530.269165,405.110199 566.858337,405.619812 603.442505,406.357422 
	C618.718018,406.665405 633.992004,407.701935 649.260498,407.587067 
	C711.177429,407.121429 773.091919,406.328156 835.007568,405.673309 
	C878.609558,405.212128 922.211792,404.778229 965.813965,404.336823 
	C968.117065,404.313507 970.420471,404.333832 972.610229,404.333832 
	C974.734192,411.611664 975.584045,1665.563110 973.483765,1683.583374 
	C971.078125,1682.036865 968.894958,1680.822876 966.917786,1679.335083 
	C888.828674,1620.568848 810.838684,1561.670410 732.589966,1503.117554 
	C722.112061,1495.277100 716.608826,1485.739014 716.194397,1472.918579 
	C716.076172,1469.263306 715.697754,1465.612061 715.688171,1461.958252 
	C715.636658,1442.294556 715.693665,1422.630371 715.659302,1402.966431 
	C715.222839,1153.391846 714.777039,903.817383 714.334351,654.242859 
	C714.329163,651.299561 714.333740,648.356201 714.333740,644.329224 
	C610.081787,644.329224 506.540833,644.329224 401.999817,644.329224 
z"/>
</svg>